<svg id="svg" xmlns="http://www.w3.org/2000/svg" xmlns:xlink="http://www.w3.org/1999/xlink" width="400" height="400" viewBox="0, 0, 400,400"><g id="svgg"><path id="path0" d="M176.262 109.531 C 175.322 110.570,175.233 198.091,176.171 199.029 C 177.173 200.030,331.630 199.872,332.538 198.869 C 333.146 198.197,333.200 194.524,333.200 154.215 L 333.200 110.294 332.339 109.547 C 331.005 108.390,177.309 108.375,176.262 109.531 M290.739 134.347 C 291.556 135.056,291.600 135.433,291.600 141.800 C 291.600 148.167,291.556 148.544,290.739 149.253 C 289.393 150.420,202.607 150.420,201.261 149.253 C 200.444 148.544,200.400 148.167,200.400 141.800 C 200.400 135.433,200.444 135.056,201.261 134.347 C 202.091 133.627,203.736 133.600,246.000 133.600 C 288.264 133.600,289.909 133.627,290.739 134.347 M274.145 159.455 C 275.195 160.505,275.200 160.536,275.200 166.800 C 275.200 173.064,275.195 173.095,274.145 174.145 L 273.091 175.200 237.671 175.200 L 202.252 175.200 201.326 174.330 C 199.934 173.022,199.888 160.797,201.270 159.326 L 202.139 158.400 237.615 158.400 L 273.091 158.400 274.145 159.455 M40.096 261.500 L 40.200 281.000 42.100 281.122 L 44.000 281.244 44.000 282.789 C 44.000 285.260,44.271 285.600,46.243 285.600 L 48.000 285.600 48.000 287.357 C 48.000 289.329,48.340 289.600,50.811 289.600 L 52.356 289.600 52.478 291.500 L 52.600 293.400 54.500 293.522 L 56.400 293.644 56.400 295.342 C 56.400 297.481,56.923 298.000,59.080 298.000 L 60.800 298.000 60.800 300.000 L 60.800 302.000 62.800 302.000 L 64.800 302.000 64.800 303.567 C 64.800 306.106,65.051 306.400,67.221 306.400 L 69.156 306.400 69.278 308.300 L 69.400 310.200 71.300 310.322 L 73.200 310.444 73.200 331.222 L 73.200 352.000 83.400 352.000 L 93.600 352.000 93.600 331.200 L 93.600 310.400 95.167 310.400 C 97.655 310.400,98.000 310.130,98.000 308.179 L 98.000 306.444 99.900 306.322 L 101.800 306.200 101.920 304.120 L 102.040 302.040 104.120 301.920 L 106.200 301.800 106.322 299.900 L 106.444 298.000 108.179 298.000 C 110.130 298.000,110.400 297.655,110.400 295.167 L 110.400 293.600 112.400 293.600 L 114.400 293.600 114.400 291.621 L 114.400 289.642 116.500 289.521 L 118.600 289.400 118.721 287.521 L 118.842 285.642 120.721 285.521 L 122.600 285.400 122.721 283.300 L 122.842 281.200 124.388 281.200 C 127.441 281.200,127.200 282.902,127.200 261.357 L 127.200 242.000 83.596 242.000 L 39.992 242.000 40.096 261.500 " stroke="none" fill="#c5b404" fill-rule="evenodd"></path><path id="path1" d="M40.000 119.400 L 40.000 132.400 65.169 132.400 L 90.338 132.400 91.569 133.631 L 92.800 134.862 92.800 141.800 L 92.800 148.738 91.569 149.969 L 90.338 151.200 65.169 151.200 L 40.000 151.200 40.000 158.600 L 40.000 166.000 65.167 166.000 C 92.210 166.000,91.346 165.948,92.215 167.629 C 93.133 169.404,93.048 181.103,92.105 182.746 C 91.123 184.457,92.251 184.389,64.900 184.395 L 40.000 184.400 40.000 191.800 L 40.000 199.200 64.900 199.205 C 92.251 199.211,91.123 199.143,92.105 200.854 C 93.048 202.497,93.133 214.196,92.215 215.971 C 91.346 217.652,92.210 217.600,65.167 217.600 L 40.000 217.600 40.000 229.200 L 40.000 240.800 83.601 240.800 L 127.202 240.800 127.101 173.700 L 127.000 106.600 118.730 106.492 C 111.115 106.393,110.441 106.440,110.231 107.092 C 109.553 109.191,109.435 109.200,83.548 109.200 C 57.912 109.200,58.215 109.222,56.812 107.234 C 56.248 106.435,55.878 106.400,48.112 106.400 L 40.000 106.400 40.000 119.400 M178.386 228.386 L 175.600 231.172 175.600 241.800 L 175.600 252.428 178.386 255.214 L 181.172 258.000 195.981 258.000 L 210.790 258.000 213.339 255.387 C 216.335 252.316,216.400 252.030,216.400 241.800 C 216.400 231.537,216.324 231.197,213.358 228.172 L 210.836 225.600 196.004 225.600 L 181.172 225.600 178.386 228.386 M236.770 228.375 L 234.000 231.150 234.000 241.800 L 234.000 252.450 236.770 255.225 L 239.539 258.000 254.331 258.000 L 269.122 258.000 271.705 255.392 C 274.740 252.326,274.800 252.065,274.800 241.800 C 274.800 231.496,274.735 231.209,271.704 228.178 L 269.126 225.600 254.333 225.600 L 239.539 225.600 236.770 228.375 M295.308 228.158 C 292.118 231.271,292.048 231.564,292.048 241.800 C 292.048 252.036,292.118 252.329,295.308 255.442 L 297.930 258.000 312.391 258.000 C 322.466 258.000,327.111 257.861,327.706 257.543 C 328.570 257.081,331.864 253.655,332.600 252.453 C 332.839 252.063,333.000 247.765,333.000 241.800 C 333.000 235.835,332.839 231.537,332.600 231.147 C 331.864 229.945,328.570 226.519,327.706 226.057 C 327.111 225.739,322.466 225.600,312.391 225.600 L 297.930 225.600 295.308 228.158 M178.386 278.386 L 175.600 281.172 175.600 291.800 L 175.600 302.428 178.386 305.214 L 181.172 308.000 195.981 308.000 L 210.790 308.000 213.339 305.387 C 216.335 302.316,216.400 302.030,216.400 291.800 C 216.400 281.537,216.324 281.197,213.358 278.172 L 210.836 275.600 196.004 275.600 L 181.172 275.600 178.386 278.386 M236.770 278.375 L 234.000 281.150 234.000 291.800 L 234.000 302.450 236.770 305.225 L 239.539 308.000 254.331 308.000 L 269.122 308.000 271.705 305.392 C 274.740 302.326,274.800 302.065,274.800 291.800 C 274.800 281.496,274.735 281.209,271.704 278.178 L 269.126 275.600 254.333 275.600 L 239.539 275.600 236.770 278.375 M295.308 278.158 C 292.118 281.271,292.048 281.564,292.048 291.800 C 292.048 302.036,292.118 302.329,295.308 305.442 L 297.930 308.000 312.391 308.000 C 322.466 308.000,327.111 307.861,327.706 307.543 C 328.570 307.081,331.864 303.655,332.600 302.453 C 332.839 302.063,333.000 297.765,333.000 291.800 C 333.000 285.835,332.839 281.537,332.600 281.147 C 331.864 279.945,328.570 276.519,327.706 276.057 C 327.111 275.739,322.466 275.600,312.391 275.600 L 297.930 275.600 295.308 278.158 " stroke="none" fill="#a6d3fb" fill-rule="evenodd"></path><path id="path2" d="M201.261 134.347 C 199.931 135.501,199.931 148.099,201.261 149.253 C 202.607 150.420,289.393 150.420,290.739 149.253 C 291.556 148.544,291.600 148.167,291.600 141.800 C 291.600 135.433,291.556 135.056,290.739 134.347 C 289.909 133.627,288.264 133.600,246.000 133.600 C 203.736 133.600,202.091 133.627,201.261 134.347 M201.270 159.326 C 199.888 160.797,199.934 173.022,201.326 174.330 L 202.252 175.200 237.671 175.200 L 273.091 175.200 274.145 174.145 C 275.195 173.095,275.200 173.064,275.200 166.800 C 275.200 160.536,275.195 160.505,274.145 159.455 L 273.091 158.400 237.615 158.400 L 202.139 158.400 201.270 159.326 M158.006 331.833 C 158.015 332.339,158.456 332.894,159.400 333.588 C 159.996 334.026,159.945 333.873,159.200 332.988 C 158.650 332.335,158.155 331.725,158.100 331.633 C 158.045 331.542,158.003 331.632,158.006 331.833 M349.000 333.276 L 348.200 334.104 349.078 333.650 C 350.002 333.172,350.674 332.383,350.124 332.424 C 349.946 332.437,349.440 332.820,349.000 333.276 " stroke="none" fill="#1c5c24" fill-rule="evenodd"></path><path id="path3" d="M41.498 48.465 C 40.891 48.687,40.497 49.033,40.621 49.234 C 40.745 49.435,40.657 49.600,40.424 49.600 C 39.935 49.600,39.822 67.141,40.306 67.800 C 41.083 68.857,57.356 69.041,58.000 68.000 C 58.626 66.988,107.769 67.108,109.268 68.125 C 110.491 68.955,125.600 69.088,125.600 68.269 C 125.600 68.048,125.719 67.986,125.864 68.131 C 126.803 69.070,127.126 66.581,127.122 58.426 C 127.117 50.028,127.101 49.865,126.191 48.954 L 125.264 48.028 83.932 48.045 C 57.206 48.056,42.210 48.205,41.498 48.465 M164.273 81.861 C 164.123 82.011,163.685 82.157,163.300 82.185 C 162.915 82.214,162.544 82.409,162.476 82.618 C 162.408 82.828,161.984 83.136,161.534 83.303 C 161.026 83.491,160.803 83.831,160.946 84.203 C 161.376 85.325,160.814 85.890,159.379 85.776 C 158.621 85.716,158.000 85.828,158.000 86.026 C 158.000 86.223,157.588 86.488,157.083 86.615 C 156.574 86.743,156.142 87.174,156.111 87.586 C 156.003 89.025,154.739 90.069,153.960 89.364 C 153.442 88.895,153.208 88.864,152.978 89.236 C 152.792 89.536,152.843 89.621,153.111 89.455 C 153.349 89.308,153.658 89.370,153.796 89.593 C 153.934 89.817,153.887 90.000,153.691 90.000 C 153.210 90.000,152.398 92.729,152.669 93.436 C 152.797 93.769,152.622 94.020,152.243 94.050 C 151.889 94.078,151.285 94.126,150.900 94.157 C 150.023 94.228,148.371 95.630,148.644 96.071 C 148.756 96.252,148.612 96.403,148.324 96.406 C 147.939 96.411,147.959 96.525,148.400 96.837 C 148.843 97.150,148.871 97.313,148.509 97.461 C 147.790 97.754,147.790 319.046,148.509 319.339 C 148.886 319.493,148.876 319.626,148.466 319.914 C 148.036 320.217,148.060 320.337,148.592 320.542 C 148.954 320.681,149.139 320.976,149.002 321.197 C 148.865 321.419,149.059 321.600,149.432 321.600 C 149.806 321.600,150.337 321.908,150.613 322.285 C 151.036 322.864,151.213 322.887,151.757 322.436 C 152.466 321.848,152.478 321.876,152.519 324.200 C 152.531 324.860,152.644 325.490,152.770 325.600 C 153.754 326.459,154.264 328.292,153.645 328.745 C 153.137 329.116,153.199 329.123,153.934 328.776 C 155.121 328.216,155.385 328.484,154.810 329.666 C 154.430 330.447,154.441 330.501,154.878 329.995 C 155.343 329.456,155.540 329.460,156.689 330.039 C 157.398 330.396,157.848 330.823,157.689 330.987 C 157.530 331.152,157.760 331.217,158.200 331.131 C 158.736 331.027,159.345 331.404,160.046 332.275 C 160.621 332.990,161.221 333.445,161.379 333.287 C 161.537 333.129,161.630 333.180,161.586 333.400 C 161.350 334.567,161.645 335.145,162.400 335.000 C 162.840 334.915,163.203 335.061,163.206 335.323 C 163.210 335.643,163.325 335.621,163.556 335.257 C 163.787 334.892,163.987 334.855,164.165 335.144 C 164.485 335.662,342.400 335.777,342.400 335.260 C 342.400 335.080,342.670 334.933,343.000 334.933 C 343.330 334.933,343.603 335.128,343.606 335.367 C 343.610 335.648,343.716 335.659,343.906 335.400 C 344.340 334.809,345.200 334.727,345.200 335.276 C 345.200 335.539,345.464 335.404,345.787 334.976 C 346.110 334.549,346.381 334.380,346.390 334.600 C 346.398 334.820,346.749 334.479,347.169 333.842 C 347.588 333.205,347.864 332.333,347.781 331.903 C 347.656 331.254,347.795 331.162,348.591 331.362 C 349.119 331.494,349.667 331.415,349.809 331.185 C 349.951 330.955,350.457 330.877,350.934 331.010 C 351.619 331.202,351.675 331.165,351.200 330.832 C 350.683 330.470,350.697 330.411,351.300 330.406 C 351.932 330.401,352.185 329.952,352.044 329.089 C 351.983 328.719,353.150 328.217,353.427 328.493 C 353.720 328.786,353.158 330.021,352.825 329.815 C 352.664 329.716,352.533 329.925,352.533 330.279 C 352.533 330.792,352.672 330.752,353.217 330.078 C 353.593 329.614,354.028 329.361,354.184 329.517 C 354.683 330.016,354.219 328.640,353.700 328.081 C 353.425 327.785,353.200 327.341,353.200 327.095 C 353.200 326.849,353.483 326.996,353.830 327.424 C 354.176 327.851,354.357 327.994,354.232 327.742 C 354.020 327.315,355.047 326.600,355.686 326.732 C 355.843 326.764,355.857 326.493,355.718 326.130 C 355.539 325.663,355.613 325.561,355.970 325.782 C 356.320 325.998,356.434 325.872,356.338 325.378 C 356.166 324.486,358.126 322.465,359.088 322.542 C 359.569 322.581,359.800 322.319,359.800 321.736 C 359.800 321.261,359.931 320.740,360.091 320.578 C 360.252 320.416,360.380 269.912,360.377 208.347 L 360.372 96.411 359.446 95.412 C 358.937 94.863,358.403 94.530,358.260 94.673 C 358.117 94.816,357.997 94.678,357.994 94.367 C 357.989 93.900,357.919 93.906,357.600 94.400 C 357.342 94.800,357.210 94.833,357.206 94.500 C 357.203 94.225,356.982 94.045,356.715 94.100 C 356.449 94.155,356.194 93.750,356.149 93.200 C 355.935 90.598,355.689 89.860,354.999 89.759 C 354.173 89.637,353.534 88.806,353.769 88.159 C 353.864 87.899,353.533 87.761,352.963 87.824 C 352.431 87.882,352.096 87.769,352.218 87.571 C 352.528 87.070,349.939 85.565,349.180 85.806 C 348.391 86.057,346.775 84.844,347.496 84.543 C 348.105 84.289,347.165 83.204,346.329 83.194 C 345.938 83.189,345.957 83.086,346.400 82.800 C 346.913 82.469,346.898 82.411,346.300 82.406 C 345.915 82.403,345.600 82.226,345.600 82.013 C 345.600 81.569,164.717 81.417,164.273 81.861 M352.228 86.355 C 352.107 86.550,352.261 86.918,352.569 87.174 C 353.143 87.651,353.959 87.026,353.440 86.507 C 353.308 86.375,353.200 86.487,353.200 86.757 C 353.200 87.027,353.017 87.134,352.793 86.996 C 352.570 86.858,352.491 86.577,352.617 86.372 C 352.744 86.168,352.757 86.000,352.647 86.000 C 352.537 86.000,352.349 86.160,352.228 86.355 M332.926 107.665 C 334.851 108.690,334.774 106.773,334.785 154.200 L 334.796 199.000 333.836 200.200 L 332.876 201.400 254.698 201.400 C 168.497 201.400,174.888 201.605,174.051 198.813 C 173.438 196.765,173.408 111.366,174.021 109.726 C 175.043 106.988,167.684 107.219,254.126 107.209 C 312.619 107.202,332.270 107.316,332.926 107.665 M212.553 224.036 C 214.218 224.498,214.688 224.798,216.398 226.488 C 218.144 228.214,218.400 230.175,218.400 241.800 C 218.400 253.425,218.144 255.386,216.398 257.112 C 213.431 260.045,213.311 260.061,195.000 259.920 C 172.494 259.747,173.800 260.863,173.800 241.800 C 173.800 226.473,174.071 225.612,179.400 224.026 C 181.170 223.499,210.652 223.508,212.553 224.036 M270.954 224.081 C 271.859 224.345,272.690 224.678,272.800 224.821 C 272.910 224.963,273.404 225.293,273.899 225.553 C 276.207 226.769,276.400 228.021,276.400 241.800 C 276.400 255.682,276.191 256.983,273.784 258.080 C 273.243 258.327,272.800 258.651,272.800 258.800 C 272.800 260.439,239.189 260.511,236.000 258.879 C 235.010 258.372,233.750 257.292,233.200 256.479 L 232.200 255.000 232.200 241.800 L 232.200 228.600 233.200 227.121 C 234.063 225.844,235.827 224.652,238.000 223.877 C 239.311 223.410,269.289 223.595,270.954 224.081 M330.935 224.788 C 332.236 225.453,333.186 226.316,333.835 227.423 L 334.800 229.070 334.800 241.800 L 334.800 254.530 333.835 256.177 C 333.186 257.284,332.236 258.147,330.935 258.812 L 329.000 259.800 312.600 259.800 L 296.200 259.800 294.297 258.827 C 290.592 256.934,290.600 256.972,290.600 241.800 C 290.600 225.898,290.561 226.018,296.400 223.870 C 296.730 223.749,304.200 223.684,313.000 223.725 L 329.000 223.800 330.935 224.788 M212.553 274.036 C 214.218 274.498,214.688 274.798,216.398 276.488 C 218.144 278.214,218.400 280.175,218.400 291.800 C 218.400 303.425,218.144 305.386,216.398 307.112 C 213.431 310.045,213.311 310.061,195.000 309.920 C 172.494 309.747,173.800 310.863,173.800 291.800 C 173.800 276.473,174.071 275.612,179.400 274.026 C 181.170 273.499,210.652 273.508,212.553 274.036 M270.954 274.081 C 271.859 274.345,272.690 274.678,272.800 274.821 C 272.910 274.963,273.404 275.293,273.899 275.553 C 276.207 276.769,276.400 278.021,276.400 291.800 C 276.400 305.682,276.191 306.983,273.784 308.080 C 273.243 308.327,272.800 308.651,272.800 308.800 C 272.800 310.439,239.189 310.511,236.000 308.879 C 235.010 308.372,233.750 307.292,233.200 306.479 L 232.200 305.000 232.200 291.800 L 232.200 278.600 233.200 277.121 C 234.063 275.844,235.827 274.652,238.000 273.877 C 239.311 273.410,269.289 273.595,270.954 274.081 M330.935 274.788 C 332.236 275.453,333.186 276.316,333.835 277.423 L 334.800 279.070 334.800 291.800 L 334.800 304.530 333.835 306.177 C 333.186 307.284,332.236 308.147,330.935 308.812 L 329.000 309.800 312.600 309.800 L 296.200 309.800 294.297 308.827 C 290.592 306.934,290.600 306.972,290.600 291.800 C 290.600 275.898,290.561 276.018,296.400 273.870 C 296.730 273.749,304.200 273.684,313.000 273.725 L 329.000 273.800 330.935 274.788 M155.745 327.634 C 155.885 327.615,155.985 327.715,155.966 327.855 C 155.947 327.996,156.172 328.263,156.466 328.449 C 156.898 328.723,156.900 328.789,156.476 328.794 C 156.183 328.797,156.078 329.003,156.238 329.262 C 156.421 329.557,156.347 329.615,156.035 329.422 C 155.767 329.256,155.638 329.029,155.749 328.917 C 156.025 328.642,155.069 327.642,154.728 327.849 C 154.578 327.939,154.325 327.802,154.166 327.545 C 153.985 327.252,154.050 327.184,154.338 327.362 C 154.597 327.522,154.803 327.417,154.806 327.124 C 154.811 326.700,154.877 326.702,155.151 327.134 C 155.337 327.428,155.604 327.653,155.745 327.634 " stroke="none" fill="#1c74d4" fill-rule="evenodd"></path><path id="path4" d="M58.900 67.475 C 58.405 67.574,58.000 67.802,58.000 67.981 C 58.000 68.160,57.640 68.401,57.200 68.516 C 56.414 68.721,56.400 69.062,56.400 87.482 L 56.400 106.239 57.728 106.720 C 59.628 107.406,107.172 107.406,109.072 106.720 L 110.400 106.239 110.400 87.566 L 110.400 68.892 109.300 68.146 C 108.248 67.432,62.169 66.819,58.900 67.475 M40.000 141.800 L 40.000 148.800 64.920 148.800 C 83.769 148.800,89.957 148.683,90.320 148.320 C 90.991 147.649,90.991 135.951,90.320 135.280 C 89.957 134.917,83.769 134.800,64.920 134.800 L 40.000 134.800 40.000 141.800 M40.000 175.200 L 40.000 182.400 64.829 182.400 C 85.813 182.400,89.746 182.312,90.229 181.829 C 90.984 181.073,91.065 169.225,90.320 168.480 C 89.957 168.117,83.769 168.000,64.920 168.000 L 40.000 168.000 40.000 175.200 M40.000 208.400 L 40.000 215.600 64.920 215.600 C 83.769 215.600,89.957 215.483,90.320 215.120 C 91.065 214.375,90.984 202.527,90.229 201.771 C 89.746 201.288,85.813 201.200,64.829 201.200 L 40.000 201.200 40.000 208.400 M209.700 223.876 C 210.085 223.976,210.715 223.976,211.100 223.876 C 211.485 223.775,211.170 223.693,210.400 223.693 C 209.630 223.693,209.315 223.775,209.700 223.876 M237.800 224.010 C 237.266 224.247,237.598 224.286,238.800 224.127 C 239.790 223.996,240.675 223.824,240.767 223.744 C 241.114 223.443,238.564 223.672,237.800 224.010 M268.100 223.876 C 268.485 223.976,269.115 223.976,269.500 223.876 C 269.885 223.775,269.570 223.693,268.800 223.693 C 268.030 223.693,267.715 223.775,268.100 223.876 M296.200 224.010 C 295.666 224.247,295.998 224.286,297.200 224.127 C 298.190 223.996,299.075 223.824,299.167 223.744 C 299.514 223.443,296.964 223.672,296.200 224.010 M326.500 223.876 C 326.885 223.976,327.515 223.976,327.900 223.876 C 328.285 223.775,327.970 223.693,327.200 223.693 C 326.430 223.693,326.115 223.775,326.500 223.876 M176.772 225.098 C 175.754 225.717,174.208 227.942,174.555 228.288 C 174.654 228.387,174.958 228.048,175.230 227.534 C 175.734 226.585,176.544 225.782,177.866 224.924 C 178.959 224.214,177.965 224.373,176.772 225.098 M215.471 226.339 C 216.532 227.405,217.465 228.226,217.544 228.162 C 217.862 227.905,215.926 225.630,215.190 225.397 C 214.755 225.259,214.400 224.978,214.400 224.773 C 214.400 224.568,214.207 224.400,213.971 224.400 C 213.735 224.400,214.410 225.272,215.471 226.339 M235.175 225.097 C 234.140 225.726,232.194 228.328,232.517 228.651 C 232.613 228.746,233.019 228.324,233.419 227.712 C 234.282 226.394,234.673 225.993,235.989 225.084 C 237.216 224.236,236.573 224.246,235.175 225.097 M273.479 225.900 C 274.385 226.725,275.399 228.030,275.731 228.800 C 276.063 229.570,276.349 229.968,276.367 229.684 C 276.431 228.670,274.750 225.960,273.784 225.520 C 273.243 225.273,272.800 224.920,272.800 224.736 C 272.800 224.551,272.582 224.400,272.316 224.400 C 272.050 224.400,272.573 225.075,273.479 225.900 M293.461 225.187 C 292.318 225.919,290.590 228.323,290.949 228.682 C 291.055 228.788,291.426 228.323,291.775 227.649 C 292.123 226.975,293.079 225.968,293.897 225.411 C 295.585 224.264,295.207 224.070,293.461 225.187 M331.910 225.959 C 332.837 226.859,333.852 228.181,334.165 228.897 C 334.478 229.614,334.749 229.955,334.767 229.654 C 334.832 228.577,333.018 225.972,331.635 225.156 L 330.225 224.324 331.910 225.959 M275.662 254.794 C 275.399 255.549,274.429 256.849,273.508 257.684 C 272.586 258.518,272.050 259.200,272.316 259.200 C 272.582 259.200,272.800 259.049,272.800 258.864 C 272.800 258.680,273.243 258.327,273.784 258.080 C 274.808 257.614,276.560 254.681,276.294 253.881 C 276.209 253.628,275.925 254.039,275.662 254.794 M334.120 254.611 C 333.888 255.265,332.912 256.581,331.949 257.536 L 330.200 259.271 331.623 258.441 C 333.075 257.595,334.990 254.770,334.701 253.902 C 334.613 253.638,334.351 253.957,334.120 254.611 M232.401 254.706 C 232.397 256.120,236.010 259.723,236.721 259.012 C 236.838 258.896,236.768 258.800,236.567 258.800 C 235.941 258.799,234.151 257.068,233.256 255.600 C 232.787 254.830,232.402 254.428,232.401 254.706 M290.800 254.712 C 290.800 256.054,294.384 259.749,295.045 259.089 C 295.129 259.004,294.718 258.679,294.130 258.367 C 293.542 258.055,292.552 257.000,291.931 256.022 C 291.309 255.044,290.800 254.454,290.800 254.712 M174.501 255.400 C 175.062 257.197,177.648 259.685,178.288 259.045 C 178.387 258.946,178.048 258.642,177.534 258.370 C 176.608 257.879,175.876 257.149,174.888 255.734 C 174.606 255.330,174.432 255.180,174.501 255.400 M215.471 257.261 C 214.410 258.328,213.735 259.200,213.971 259.200 C 214.207 259.200,214.400 259.032,214.400 258.827 C 214.400 258.622,214.755 258.341,215.190 258.203 C 215.926 257.970,217.862 255.695,217.544 255.438 C 217.465 255.374,216.532 256.195,215.471 257.261 M237.800 259.590 C 238.564 259.928,241.114 260.157,240.767 259.856 C 240.675 259.776,239.790 259.604,238.800 259.473 C 237.598 259.314,237.266 259.353,237.800 259.590 M296.200 259.590 C 296.964 259.928,299.514 260.157,299.167 259.856 C 299.075 259.776,298.190 259.604,297.200 259.473 C 295.998 259.314,295.666 259.353,296.200 259.590 M209.700 259.876 C 210.085 259.976,210.715 259.976,211.100 259.876 C 211.485 259.775,211.170 259.693,210.400 259.693 C 209.630 259.693,209.315 259.775,209.700 259.876 M268.100 259.876 C 268.485 259.976,269.115 259.976,269.500 259.876 C 269.885 259.775,269.570 259.693,268.800 259.693 C 268.030 259.693,267.715 259.775,268.100 259.876 M326.500 259.876 C 326.885 259.976,327.515 259.976,327.900 259.876 C 328.285 259.775,327.970 259.693,327.200 259.693 C 326.430 259.693,326.115 259.775,326.500 259.876 M209.700 273.876 C 210.085 273.976,210.715 273.976,211.100 273.876 C 211.485 273.775,211.170 273.693,210.400 273.693 C 209.630 273.693,209.315 273.775,209.700 273.876 M237.800 274.010 C 237.266 274.247,237.598 274.286,238.800 274.127 C 239.790 273.996,240.675 273.824,240.767 273.744 C 241.114 273.443,238.564 273.672,237.800 274.010 M268.100 273.876 C 268.485 273.976,269.115 273.976,269.500 273.876 C 269.885 273.775,269.570 273.693,268.800 273.693 C 268.030 273.693,267.715 273.775,268.100 273.876 M296.200 274.010 C 295.666 274.247,295.998 274.286,297.200 274.127 C 298.190 273.996,299.075 273.824,299.167 273.744 C 299.514 273.443,296.964 273.672,296.200 274.010 M326.500 273.876 C 326.885 273.976,327.515 273.976,327.900 273.876 C 328.285 273.775,327.970 273.693,327.200 273.693 C 326.430 273.693,326.115 273.775,326.500 273.876 M176.772 275.098 C 175.754 275.717,174.208 277.942,174.555 278.288 C 174.654 278.387,174.958 278.048,175.230 277.534 C 175.734 276.585,176.544 275.782,177.866 274.924 C 178.959 274.214,177.965 274.373,176.772 275.098 M215.471 276.339 C 216.532 277.405,217.465 278.226,217.544 278.162 C 217.862 277.905,215.926 275.630,215.190 275.397 C 214.755 275.259,214.400 274.978,214.400 274.773 C 214.400 274.568,214.207 274.400,213.971 274.400 C 213.735 274.400,214.410 275.272,215.471 276.339 M235.175 275.097 C 234.140 275.726,232.194 278.328,232.517 278.651 C 232.613 278.746,233.019 278.324,233.419 277.712 C 234.282 276.394,234.673 275.993,235.989 275.084 C 237.216 274.236,236.573 274.246,235.175 275.097 M273.479 275.900 C 274.385 276.725,275.399 278.030,275.731 278.800 C 276.063 279.570,276.349 279.968,276.367 279.684 C 276.431 278.670,274.750 275.960,273.784 275.520 C 273.243 275.273,272.800 274.920,272.800 274.736 C 272.800 274.551,272.582 274.400,272.316 274.400 C 272.050 274.400,272.573 275.075,273.479 275.900 M293.461 275.187 C 292.318 275.919,290.590 278.323,290.949 278.682 C 291.055 278.788,291.426 278.323,291.775 277.649 C 292.123 276.975,293.079 275.968,293.897 275.411 C 295.585 274.264,295.207 274.070,293.461 275.187 M331.910 275.959 C 332.837 276.859,333.852 278.181,334.165 278.897 C 334.478 279.614,334.749 279.955,334.767 279.654 C 334.832 278.577,333.018 275.972,331.635 275.156 L 330.225 274.324 331.910 275.959 M275.662 304.794 C 275.399 305.549,274.429 306.849,273.508 307.684 C 272.586 308.518,272.050 309.200,272.316 309.200 C 272.582 309.200,272.800 309.049,272.800 308.864 C 272.800 308.680,273.243 308.327,273.784 308.080 C 274.808 307.614,276.560 304.681,276.294 303.881 C 276.209 303.628,275.925 304.039,275.662 304.794 M334.120 304.611 C 333.888 305.265,332.912 306.581,331.949 307.536 L 330.200 309.271 331.623 308.441 C 333.075 307.595,334.990 304.770,334.701 303.902 C 334.613 303.638,334.351 303.957,334.120 304.611 M232.401 304.706 C 232.397 306.120,236.010 309.723,236.721 309.012 C 236.838 308.896,236.768 308.800,236.567 308.800 C 235.941 308.799,234.151 307.068,233.256 305.600 C 232.787 304.830,232.402 304.428,232.401 304.706 M290.800 304.712 C 290.800 306.054,294.384 309.749,295.045 309.089 C 295.129 309.004,294.718 308.679,294.130 308.367 C 293.542 308.055,292.552 307.000,291.931 306.022 C 291.309 305.044,290.800 304.454,290.800 304.712 M174.501 305.400 C 175.062 307.197,177.648 309.685,178.288 309.045 C 178.387 308.946,178.048 308.642,177.534 308.370 C 176.608 307.879,175.876 307.149,174.888 305.734 C 174.606 305.330,174.432 305.180,174.501 305.400 M215.471 307.261 C 214.410 308.328,213.735 309.200,213.971 309.200 C 214.207 309.200,214.400 309.032,214.400 308.827 C 214.400 308.622,214.755 308.341,215.190 308.203 C 215.926 307.970,217.862 305.695,217.544 305.438 C 217.465 305.374,216.532 306.195,215.471 307.261 M237.800 309.590 C 238.564 309.928,241.114 310.157,240.767 309.856 C 240.675 309.776,239.790 309.604,238.800 309.473 C 237.598 309.314,237.266 309.353,237.800 309.590 M296.200 309.590 C 296.964 309.928,299.514 310.157,299.167 309.856 C 299.075 309.776,298.190 309.604,297.200 309.473 C 295.998 309.314,295.666 309.353,296.200 309.590 M209.700 309.876 C 210.085 309.976,210.715 309.976,211.100 309.876 C 211.485 309.775,211.170 309.693,210.400 309.693 C 209.630 309.693,209.315 309.775,209.700 309.876 M268.100 309.876 C 268.485 309.976,269.115 309.976,269.500 309.876 C 269.885 309.775,269.570 309.693,268.800 309.693 C 268.030 309.693,267.715 309.775,268.100 309.876 M326.500 309.876 C 326.885 309.976,327.515 309.976,327.900 309.876 C 328.285 309.775,327.970 309.693,327.200 309.693 C 326.430 309.693,326.115 309.775,326.500 309.876 " stroke="none" fill="#1c8ce4" fill-rule="evenodd"></path><path id="path5" d="M56.400 106.570 C 56.400 106.988,57.718 108.249,58.674 108.746 C 60.311 109.597,107.243 109.367,108.761 108.500 C 110.804 107.334,110.926 105.920,108.913 106.753 C 107.591 107.300,58.770 107.198,57.300 106.645 C 56.805 106.459,56.400 106.425,56.400 106.570 M40.000 133.600 L 40.000 134.800 64.920 134.800 C 83.769 134.800,89.957 134.917,90.320 135.280 C 90.991 135.951,90.991 147.649,90.320 148.320 C 89.957 148.683,83.769 148.800,64.920 148.800 L 40.000 148.800 40.000 150.000 L 40.000 151.200 65.169 151.200 L 90.338 151.200 91.569 149.969 L 92.800 148.738 92.800 141.800 L 92.800 134.862 91.569 133.631 L 90.338 132.400 65.169 132.400 L 40.000 132.400 40.000 133.600 M40.000 167.000 L 40.000 168.000 64.920 168.000 C 83.769 168.000,89.957 168.117,90.320 168.480 C 91.065 169.225,90.984 181.073,90.229 181.829 C 89.746 182.312,85.813 182.400,64.829 182.400 L 40.000 182.400 40.000 183.400 L 40.000 184.400 64.900 184.395 C 92.251 184.389,91.123 184.457,92.105 182.746 C 93.048 181.103,93.133 169.404,92.215 167.629 C 91.346 165.948,92.210 166.000,65.167 166.000 L 40.000 166.000 40.000 167.000 M40.000 200.200 L 40.000 201.200 64.829 201.200 C 85.813 201.200,89.746 201.288,90.229 201.771 C 90.984 202.527,91.065 214.375,90.320 215.120 C 89.957 215.483,83.769 215.600,64.920 215.600 L 40.000 215.600 40.000 216.600 L 40.000 217.600 65.167 217.600 C 92.210 217.600,91.346 217.652,92.215 215.971 C 93.133 214.196,93.048 202.497,92.105 200.854 C 91.123 199.143,92.251 199.211,64.900 199.205 L 40.000 199.200 40.000 200.200 M180.662 224.045 C 174.680 225.237,173.600 227.952,173.600 241.800 C 173.600 260.095,173.740 260.201,197.650 259.881 C 213.389 259.671,213.007 259.728,215.574 257.188 C 218.079 254.709,218.400 252.961,218.400 241.800 C 218.400 229.279,217.116 225.433,212.522 224.201 C 210.802 223.739,182.883 223.603,180.662 224.045 M240.000 223.866 C 236.317 224.556,235.062 225.317,233.181 228.000 L 232.200 229.400 232.200 241.600 C 232.200 260.371,231.522 259.800,253.800 259.800 C 277.022 259.800,276.400 260.295,276.400 241.800 C 276.400 228.219,275.533 225.464,270.859 224.189 C 269.676 223.866,241.570 223.572,240.000 223.866 M297.200 224.133 C 294.444 224.756,293.009 225.698,291.659 227.773 L 290.600 229.400 290.600 241.600 L 290.600 253.800 291.696 255.665 C 294.093 259.742,296.128 260.121,314.450 259.896 C 330.760 259.696,332.211 259.298,334.227 254.473 C 335.089 252.411,335.058 231.115,334.191 229.039 C 333.436 227.232,330.771 224.593,329.300 224.196 C 327.249 223.643,299.612 223.589,297.200 224.133 M213.358 228.172 C 216.324 231.197,216.400 231.537,216.400 241.800 C 216.400 252.030,216.335 252.316,213.339 255.387 L 210.790 258.000 195.981 258.000 L 181.172 258.000 178.386 255.214 L 175.600 252.428 175.600 241.800 L 175.600 231.172 178.386 228.386 L 181.172 225.600 196.004 225.600 L 210.836 225.600 213.358 228.172 M271.704 228.178 C 274.735 231.209,274.800 231.496,274.800 241.800 C 274.800 252.065,274.740 252.326,271.705 255.392 L 269.122 258.000 254.331 258.000 L 239.539 258.000 236.770 255.225 L 234.000 252.450 234.000 241.800 L 234.000 231.150 236.770 228.375 L 239.539 225.600 254.333 225.600 L 269.126 225.600 271.704 228.178 M327.706 226.057 C 328.570 226.519,331.864 229.945,332.600 231.147 C 332.839 231.537,333.000 235.835,333.000 241.800 C 333.000 247.765,332.839 252.063,332.600 252.453 C 331.864 253.655,328.570 257.081,327.706 257.543 C 327.111 257.861,322.466 258.000,312.391 258.000 L 297.930 258.000 295.308 255.442 C 292.118 252.329,292.048 252.036,292.048 241.800 C 292.048 231.564,292.118 231.271,295.308 228.158 L 297.930 225.600 312.391 225.600 C 322.466 225.600,327.111 225.739,327.706 226.057 M180.662 274.045 C 174.680 275.237,173.600 277.952,173.600 291.800 C 173.600 310.095,173.740 310.201,197.650 309.881 C 213.389 309.671,213.007 309.728,215.574 307.188 C 218.079 304.709,218.400 302.961,218.400 291.800 C 218.400 279.279,217.116 275.433,212.522 274.201 C 210.802 273.739,182.883 273.603,180.662 274.045 M240.000 273.866 C 236.317 274.556,235.062 275.317,233.181 278.000 L 232.200 279.400 232.200 291.600 C 232.200 310.371,231.522 309.800,253.800 309.800 C 277.022 309.800,276.400 310.295,276.400 291.800 C 276.400 278.219,275.533 275.464,270.859 274.189 C 269.676 273.866,241.570 273.572,240.000 273.866 M297.200 274.133 C 294.444 274.756,293.009 275.698,291.659 277.773 L 290.600 279.400 290.600 291.600 L 290.600 303.800 291.696 305.665 C 294.093 309.742,296.128 310.121,314.450 309.896 C 330.760 309.696,332.211 309.298,334.227 304.473 C 335.089 302.411,335.058 281.115,334.191 279.039 C 333.436 277.232,330.771 274.593,329.300 274.196 C 327.249 273.643,299.612 273.589,297.200 274.133 M213.358 278.172 C 216.324 281.197,216.400 281.537,216.400 291.800 C 216.400 302.030,216.335 302.316,213.339 305.387 L 210.790 308.000 195.981 308.000 L 181.172 308.000 178.386 305.214 L 175.600 302.428 175.600 291.800 L 175.600 281.172 178.386 278.386 L 181.172 275.600 196.004 275.600 L 210.836 275.600 213.358 278.172 M271.704 278.178 C 274.735 281.209,274.800 281.496,274.800 291.800 C 274.800 302.065,274.740 302.326,271.705 305.392 L 269.122 308.000 254.331 308.000 L 239.539 308.000 236.770 305.225 L 234.000 302.450 234.000 291.800 L 234.000 281.150 236.770 278.375 L 239.539 275.600 254.333 275.600 L 269.126 275.600 271.704 278.178 M327.706 276.057 C 328.570 276.519,331.864 279.945,332.600 281.147 C 332.839 281.537,333.000 285.835,333.000 291.800 C 333.000 297.765,332.839 302.063,332.600 302.453 C 331.864 303.655,328.570 307.081,327.706 307.543 C 327.111 307.861,322.466 308.000,312.391 308.000 L 297.930 308.000 295.308 305.442 C 292.118 302.329,292.048 302.036,292.048 291.800 C 292.048 281.564,292.118 281.271,295.308 278.158 L 297.930 275.600 312.391 275.600 C 322.466 275.600,327.111 275.739,327.706 276.057 " stroke="none" fill="#4c94dc" fill-rule="evenodd"></path><path id="path6" d="M175.321 107.909 C 174.837 108.289,174.252 109.107,174.021 109.726 C 173.408 111.366,173.438 196.765,174.051 198.813 C 174.888 201.605,168.497 201.400,254.698 201.400 L 332.876 201.400 333.836 200.200 L 334.796 199.000 334.785 154.200 C 334.774 106.773,334.851 108.690,332.926 107.665 C 331.295 106.796,176.432 107.036,175.321 107.909 M332.339 109.547 L 333.200 110.294 333.200 154.215 C 333.200 194.524,333.146 198.197,332.538 198.869 C 331.630 199.872,177.173 200.030,176.171 199.029 C 175.233 198.091,175.322 110.570,176.262 109.531 C 177.309 108.375,331.005 108.390,332.339 109.547 M40.000 241.400 C 40.000 241.930,45.111 242.000,83.600 242.000 C 122.089 242.000,127.200 241.930,127.200 241.400 C 127.200 240.870,122.089 240.800,83.600 240.800 C 45.111 240.800,40.000 240.870,40.000 241.400 " stroke="none" fill="#5864a0" fill-rule="evenodd"></path><path id="path7" d="M40.000 48.800 C 40.000 49.240,40.191 49.600,40.424 49.600 C 40.657 49.600,40.745 49.435,40.621 49.234 C 40.497 49.033,40.891 48.687,41.498 48.466 L 42.600 48.063 41.300 48.032 C 40.256 48.006,40.000 48.158,40.000 48.800 M125.600 48.229 C 125.600 48.655,126.837 49.697,127.068 49.465 C 127.471 49.063,126.850 48.000,126.213 48.000 C 125.876 48.000,125.600 48.103,125.600 48.229 M126.568 67.740 C 126.429 68.101,126.155 68.296,125.958 68.174 C 125.761 68.052,125.600 68.143,125.600 68.376 C 125.600 69.034,126.796 68.875,127.062 68.183 C 127.192 67.843,127.191 67.457,127.059 67.325 C 126.927 67.193,126.706 67.380,126.568 67.740 M40.006 68.100 C 40.002 68.621,40.325 68.800,41.267 68.800 C 42.630 68.800,42.698 68.562,41.400 68.338 C 40.960 68.262,40.468 68.020,40.306 67.800 C 40.140 67.574,40.010 67.705,40.006 68.100 M159.800 82.143 C 158.409 82.673,157.232 83.910,157.213 84.862 C 157.203 85.351,156.676 85.597,155.200 85.800 C 152.959 86.108,152.481 86.527,153.266 87.494 C 153.623 87.935,153.638 88.056,153.312 87.860 C 152.826 87.569,152.558 88.213,152.261 90.379 C 152.187 90.917,151.873 91.426,151.563 91.509 C 151.126 91.627,151.134 91.566,151.600 91.237 C 152.103 90.881,152.066 90.811,151.370 90.806 C 150.424 90.799,148.800 92.349,148.800 93.259 C 148.800 93.593,148.673 93.993,148.518 94.148 C 148.035 94.632,147.950 96.400,148.410 96.400 C 148.650 96.400,148.756 96.252,148.644 96.071 C 148.371 95.630,150.023 94.228,150.900 94.157 C 151.285 94.126,151.889 94.078,152.243 94.050 C 152.622 94.020,152.797 93.769,152.669 93.436 C 152.410 92.761,153.194 90.021,153.667 89.950 C 153.850 89.923,154.148 89.877,154.329 89.850 C 154.966 89.753,156.050 88.398,156.108 87.626 C 156.143 87.164,156.556 86.747,157.120 86.606 C 157.760 86.445,157.997 86.169,157.841 85.762 C 157.690 85.369,157.772 85.259,158.077 85.448 C 159.633 86.409,161.484 85.605,160.946 84.203 C 160.801 83.825,161.036 83.487,161.588 83.283 C 162.067 83.105,162.401 82.804,162.330 82.613 C 162.258 82.422,162.605 82.236,163.100 82.200 C 163.595 82.164,164.120 82.014,164.266 81.867 C 164.707 81.427,161.093 81.650,159.800 82.143 M345.600 81.975 C 345.600 82.209,345.915 82.403,346.300 82.406 C 346.898 82.411,346.913 82.469,346.400 82.800 C 345.957 83.086,345.938 83.189,346.329 83.194 C 347.165 83.204,348.105 84.289,347.496 84.543 C 346.775 84.844,348.391 86.057,349.180 85.806 C 349.939 85.565,352.528 87.070,352.218 87.571 C 352.096 87.769,352.431 87.882,352.963 87.824 C 353.533 87.761,353.864 87.899,353.769 88.159 C 353.534 88.806,354.173 89.637,354.999 89.759 C 355.689 89.860,355.935 90.598,356.149 93.200 C 356.194 93.750,356.449 94.155,356.715 94.100 C 356.982 94.045,357.203 94.225,357.206 94.500 C 357.210 94.833,357.342 94.800,357.600 94.400 C 357.919 93.906,357.989 93.900,357.994 94.367 C 357.997 94.678,358.109 94.824,358.243 94.691 C 358.590 94.343,359.560 95.328,359.296 95.762 C 359.175 95.961,359.269 96.005,359.504 95.859 C 359.739 95.714,360.032 95.821,360.155 96.098 C 360.277 96.374,360.310 96.060,360.229 95.400 C 360.034 93.830,359.340 92.083,358.627 91.370 C 357.939 90.682,356.625 90.593,357.038 91.262 C 357.195 91.516,357.155 91.619,356.949 91.492 C 356.743 91.365,356.530 90.662,356.475 89.930 C 356.420 89.199,356.199 88.540,355.985 88.466 C 355.770 88.392,355.698 88.165,355.823 87.962 C 356.137 87.455,355.637 86.000,355.149 86.000 C 354.931 86.000,354.856 86.168,354.983 86.373 C 355.110 86.578,354.715 86.499,354.107 86.197 C 353.498 85.895,352.512 85.584,351.915 85.506 C 351.318 85.428,350.688 85.208,350.515 85.018 C 350.342 84.827,350.425 84.801,350.700 84.959 C 351.499 85.419,351.303 83.817,350.469 83.062 C 349.600 82.276,348.210 82.153,348.641 82.900 C 348.808 83.190,348.776 83.260,348.564 83.067 C 348.364 82.883,348.200 82.523,348.200 82.267 C 348.200 82.010,347.615 81.744,346.900 81.675 C 346.170 81.604,345.600 81.736,345.600 81.975 M352.617 86.372 C 352.491 86.577,352.570 86.858,352.793 86.996 C 353.017 87.134,353.200 87.027,353.200 86.757 C 353.200 86.487,353.308 86.375,353.440 86.507 C 353.959 87.026,353.143 87.651,352.569 87.174 C 352.070 86.761,352.121 86.000,352.647 86.000 C 352.757 86.000,352.744 86.168,352.617 86.372 M148.000 321.567 C 148.000 322.245,148.180 322.800,148.400 322.800 C 148.620 322.800,148.800 323.169,148.800 323.619 C 148.800 324.589,150.625 326.400,151.602 326.400 C 152.117 326.400,152.376 326.922,152.644 328.500 L 153.000 330.600 155.100 330.956 C 156.356 331.169,157.200 331.519,157.200 331.825 C 157.200 332.713,159.662 334.877,160.440 334.674 C 160.879 334.559,161.228 334.741,161.339 335.143 C 161.439 335.504,161.501 335.223,161.477 334.517 C 161.452 333.812,161.356 333.311,161.262 333.404 C 161.169 333.498,160.621 332.990,160.046 332.275 C 159.345 331.404,158.736 331.027,158.200 331.131 C 157.760 331.217,157.530 331.152,157.689 330.987 C 157.848 330.823,157.398 330.396,156.689 330.039 C 155.540 329.460,155.343 329.456,154.878 329.995 C 154.441 330.501,154.430 330.447,154.810 329.666 C 155.385 328.484,155.121 328.216,153.934 328.776 C 153.221 329.112,153.148 329.108,153.625 328.758 C 154.399 328.189,153.365 325.493,152.491 325.802 C 152.124 325.931,152.082 325.788,152.340 325.291 C 152.537 324.911,152.646 324.150,152.583 323.600 C 152.519 323.050,152.452 322.443,152.433 322.251 C 152.415 322.059,152.111 322.142,151.757 322.436 C 151.213 322.887,151.036 322.864,150.613 322.285 C 150.337 321.908,149.817 321.600,149.456 321.600 C 149.095 321.600,148.845 321.398,148.900 321.150 C 148.955 320.903,148.775 320.618,148.500 320.517 C 148.168 320.395,148.000 320.749,148.000 321.567 M359.405 322.408 C 359.498 322.559,359.319 323.024,359.007 323.441 C 358.466 324.165,358.450 324.159,358.667 323.300 C 358.964 322.119,358.697 322.165,357.331 323.531 C 356.709 324.153,356.262 324.984,356.338 325.378 C 356.434 325.872,356.320 325.998,355.970 325.782 C 355.613 325.561,355.539 325.663,355.718 326.130 C 355.857 326.493,355.843 326.764,355.686 326.732 C 355.047 326.600,354.020 327.315,354.232 327.742 C 354.357 327.994,354.176 327.851,353.830 327.424 C 353.483 326.996,353.200 326.849,353.200 327.095 C 353.200 327.341,353.425 327.785,353.700 328.081 C 354.219 328.640,354.683 330.016,354.184 329.517 C 354.028 329.361,353.593 329.614,353.217 330.078 C 352.672 330.752,352.533 330.792,352.533 330.279 C 352.533 329.925,352.664 329.716,352.825 329.815 C 353.158 330.021,353.720 328.786,353.427 328.493 C 353.117 328.184,351.930 328.763,352.148 329.116 C 352.646 329.922,349.724 331.662,348.437 331.326 C 347.800 331.159,347.661 331.280,347.781 331.899 C 347.942 332.736,346.730 334.908,346.160 334.803 C 345.973 334.768,345.755 334.934,345.677 335.170 C 345.598 335.407,345.908 335.600,346.367 335.600 C 346.882 335.600,347.212 335.333,347.232 334.900 C 347.250 334.492,347.346 334.406,347.463 334.694 C 347.699 335.278,349.884 334.292,350.687 333.239 C 351.345 332.377,351.354 331.064,350.700 331.441 C 350.425 331.599,350.342 331.573,350.515 331.382 C 350.788 331.082,352.414 330.858,354.909 330.775 C 355.298 330.762,355.513 330.582,355.385 330.376 C 355.257 330.169,355.343 330.000,355.576 330.000 C 355.809 330.000,356.000 329.711,356.000 329.357 C 356.000 328.941,355.782 328.798,355.379 328.953 C 355.023 329.089,354.863 329.022,355.003 328.795 C 355.137 328.578,355.507 328.400,355.824 328.400 C 356.156 328.400,356.400 328.016,356.400 327.491 C 356.400 326.862,356.832 326.349,357.800 325.828 C 358.570 325.413,359.201 324.877,359.202 324.637 C 359.204 324.397,359.448 323.735,359.744 323.167 C 360.185 322.322,360.188 322.133,359.759 322.133 C 359.471 322.133,359.312 322.257,359.405 322.408 M154.806 327.124 C 154.803 327.417,154.597 327.522,154.338 327.362 C 154.050 327.184,153.985 327.252,154.166 327.545 C 154.325 327.802,154.578 327.939,154.728 327.849 C 155.069 327.642,156.025 328.642,155.749 328.917 C 155.638 329.029,155.767 329.256,156.035 329.422 C 156.347 329.615,156.421 329.557,156.238 329.262 C 156.078 329.003,156.183 328.797,156.476 328.794 C 156.900 328.789,156.898 328.723,156.466 328.449 C 156.172 328.263,155.947 327.996,155.966 327.855 C 155.985 327.715,155.885 327.615,155.745 327.634 C 155.604 327.653,155.337 327.428,155.151 327.134 C 154.877 326.702,154.811 326.700,154.806 327.124 M159.200 332.988 C 159.945 333.873,159.996 334.026,159.400 333.588 C 158.456 332.894,158.015 332.339,158.006 331.833 C 158.003 331.632,158.045 331.542,158.100 331.633 C 158.155 331.725,158.650 332.335,159.200 332.988 M350.201 332.798 C 350.066 333.017,349.560 333.400,349.078 333.650 L 348.200 334.104 349.000 333.276 C 349.828 332.419,350.634 332.098,350.201 332.798 " stroke="none" fill="#1c64d8" fill-rule="evenodd"></path><path id="path8" d="M40.000 48.800 C 40.000 49.240,40.191 49.600,40.424 49.600 C 40.657 49.600,40.745 49.435,40.621 49.234 C 40.497 49.033,40.891 48.687,41.498 48.466 L 42.600 48.063 41.300 48.032 C 40.256 48.006,40.000 48.158,40.000 48.800 M125.600 48.229 C 125.600 48.655,126.837 49.697,127.068 49.465 C 127.471 49.063,126.850 48.000,126.213 48.000 C 125.876 48.000,125.600 48.103,125.600 48.229 M126.568 67.740 C 126.429 68.101,126.155 68.296,125.958 68.174 C 125.761 68.052,125.600 68.143,125.600 68.376 C 125.600 69.034,126.796 68.875,127.062 68.183 C 127.192 67.843,127.191 67.457,127.059 67.325 C 126.927 67.193,126.706 67.380,126.568 67.740 M40.006 68.100 C 40.002 68.621,40.325 68.800,41.267 68.800 C 42.630 68.800,42.698 68.562,41.400 68.338 C 40.960 68.262,40.468 68.020,40.306 67.800 C 40.140 67.574,40.010 67.705,40.006 68.100 M159.800 82.143 C 158.409 82.673,157.232 83.910,157.213 84.862 C 157.203 85.351,156.676 85.597,155.200 85.800 C 152.959 86.108,152.481 86.527,153.266 87.494 C 153.623 87.935,153.638 88.056,153.312 87.860 C 152.826 87.569,152.558 88.213,152.261 90.379 C 152.187 90.917,151.873 91.426,151.563 91.509 C 151.126 91.627,151.134 91.566,151.600 91.237 C 152.103 90.881,152.066 90.811,151.370 90.806 C 150.424 90.799,148.800 92.349,148.800 93.259 C 148.800 93.593,148.673 93.993,148.518 94.148 C 148.035 94.632,147.950 96.400,148.410 96.400 C 148.650 96.400,148.756 96.252,148.644 96.071 C 148.371 95.630,150.023 94.228,150.900 94.157 C 151.285 94.126,151.889 94.078,152.243 94.050 C 152.622 94.020,152.797 93.769,152.669 93.436 C 152.410 92.761,153.194 90.021,153.667 89.950 C 153.850 89.923,154.148 89.877,154.329 89.850 C 154.966 89.753,156.050 88.398,156.108 87.626 C 156.143 87.164,156.556 86.747,157.120 86.606 C 157.760 86.445,157.997 86.169,157.841 85.762 C 157.690 85.369,157.772 85.259,158.077 85.448 C 159.633 86.409,161.484 85.605,160.946 84.203 C 160.801 83.825,161.036 83.487,161.588 83.283 C 162.067 83.105,162.401 82.804,162.330 82.613 C 162.258 82.422,162.605 82.236,163.100 82.200 C 163.595 82.164,164.120 82.014,164.266 81.867 C 164.707 81.427,161.093 81.650,159.800 82.143 M345.600 81.975 C 345.600 82.209,345.915 82.403,346.300 82.406 C 346.898 82.411,346.913 82.469,346.400 82.800 C 345.957 83.086,345.938 83.189,346.329 83.194 C 347.165 83.204,348.105 84.289,347.496 84.543 C 346.775 84.844,348.391 86.057,349.180 85.806 C 349.939 85.565,352.528 87.070,352.218 87.571 C 352.096 87.769,352.431 87.882,352.963 87.824 C 353.533 87.761,353.864 87.899,353.769 88.159 C 353.534 88.806,354.173 89.637,354.999 89.759 C 355.689 89.860,355.935 90.598,356.149 93.200 C 356.194 93.750,356.449 94.155,356.715 94.100 C 356.982 94.045,357.203 94.225,357.206 94.500 C 357.210 94.833,357.342 94.800,357.600 94.400 C 357.919 93.906,357.989 93.900,357.994 94.367 C 357.997 94.678,358.109 94.824,358.243 94.691 C 358.590 94.343,359.560 95.328,359.296 95.762 C 359.175 95.961,359.269 96.005,359.504 95.859 C 359.739 95.714,360.032 95.821,360.155 96.098 C 360.277 96.374,360.310 96.060,360.229 95.400 C 360.034 93.830,359.340 92.083,358.627 91.370 C 357.939 90.682,356.625 90.593,357.038 91.262 C 357.195 91.516,357.155 91.619,356.949 91.492 C 356.743 91.365,356.530 90.662,356.475 89.930 C 356.420 89.199,356.199 88.540,355.985 88.466 C 355.770 88.392,355.698 88.165,355.823 87.962 C 356.137 87.455,355.637 86.000,355.149 86.000 C 354.931 86.000,354.856 86.168,354.983 86.373 C 355.110 86.578,354.715 86.499,354.107 86.197 C 353.498 85.895,352.512 85.584,351.915 85.506 C 351.318 85.428,350.688 85.208,350.515 85.018 C 350.342 84.827,350.425 84.801,350.700 84.959 C 351.499 85.419,351.303 83.817,350.469 83.062 C 349.600 82.276,348.210 82.153,348.641 82.900 C 348.808 83.190,348.776 83.260,348.564 83.067 C 348.364 82.883,348.200 82.523,348.200 82.267 C 348.200 82.010,347.615 81.744,346.900 81.675 C 346.170 81.604,345.600 81.736,345.600 81.975 M352.617 86.372 C 352.491 86.577,352.570 86.858,352.793 86.996 C 353.017 87.134,353.200 87.027,353.200 86.757 C 353.200 86.487,353.308 86.375,353.440 86.507 C 353.959 87.026,353.143 87.651,352.569 87.174 C 352.070 86.761,352.121 86.000,352.647 86.000 C 352.757 86.000,352.744 86.168,352.617 86.372 M148.000 321.567 C 148.000 322.245,148.180 322.800,148.400 322.800 C 148.620 322.800,148.800 323.169,148.800 323.619 C 148.800 324.589,150.625 326.400,151.602 326.400 C 152.117 326.400,152.376 326.922,152.644 328.500 L 153.000 330.600 155.100 330.956 C 156.356 331.169,157.200 331.519,157.200 331.825 C 157.200 332.713,159.662 334.877,160.440 334.674 C 160.879 334.559,161.228 334.741,161.339 335.143 C 161.439 335.504,161.501 335.223,161.477 334.517 C 161.452 333.812,161.356 333.311,161.262 333.404 C 161.169 333.498,160.621 332.990,160.046 332.275 C 159.345 331.404,158.736 331.027,158.200 331.131 C 157.760 331.217,157.530 331.152,157.689 330.987 C 157.848 330.823,157.398 330.396,156.689 330.039 C 155.540 329.460,155.343 329.456,154.878 329.995 C 154.441 330.501,154.430 330.447,154.810 329.666 C 155.385 328.484,155.121 328.216,153.934 328.776 C 153.221 329.112,153.148 329.108,153.625 328.758 C 154.399 328.189,153.365 325.493,152.491 325.802 C 152.124 325.931,152.082 325.788,152.340 325.291 C 152.537 324.911,152.646 324.150,152.583 323.600 C 152.519 323.050,152.452 322.443,152.433 322.251 C 152.415 322.059,152.111 322.142,151.757 322.436 C 151.213 322.887,151.036 322.864,150.613 322.285 C 150.337 321.908,149.817 321.600,149.456 321.600 C 149.095 321.600,148.845 321.398,148.900 321.150 C 148.955 320.903,148.775 320.618,148.500 320.517 C 148.168 320.395,148.000 320.749,148.000 321.567 M359.405 322.408 C 359.498 322.559,359.319 323.024,359.007 323.441 C 358.466 324.165,358.450 324.159,358.667 323.300 C 358.964 322.119,358.697 322.165,357.331 323.531 C 356.709 324.153,356.262 324.984,356.338 325.378 C 356.434 325.872,356.320 325.998,355.970 325.782 C 355.613 325.561,355.539 325.663,355.718 326.130 C 355.857 326.493,355.843 326.764,355.686 326.732 C 355.047 326.600,354.020 327.315,354.232 327.742 C 354.357 327.994,354.176 327.851,353.830 327.424 C 353.483 326.996,353.200 326.849,353.200 327.095 C 353.200 327.341,353.425 327.785,353.700 328.081 C 354.219 328.640,354.683 330.016,354.184 329.517 C 354.028 329.361,353.593 329.614,353.217 330.078 C 352.672 330.752,352.533 330.792,352.533 330.279 C 352.533 329.925,352.664 329.716,352.825 329.815 C 353.158 330.021,353.720 328.786,353.427 328.493 C 353.117 328.184,351.930 328.763,352.148 329.116 C 352.646 329.922,349.724 331.662,348.437 331.326 C 347.800 331.159,347.661 331.280,347.781 331.899 C 347.942 332.736,346.730 334.908,346.160 334.803 C 345.973 334.768,345.755 334.934,345.677 335.170 C 345.598 335.407,345.908 335.600,346.367 335.600 C 346.882 335.600,347.212 335.333,347.232 334.900 C 347.250 334.492,347.346 334.406,347.463 334.694 C 347.699 335.278,349.884 334.292,350.687 333.239 C 351.345 332.377,351.354 331.064,350.700 331.441 C 350.425 331.599,350.342 331.573,350.515 331.382 C 350.788 331.082,352.414 330.858,354.909 330.775 C 355.298 330.762,355.513 330.582,355.385 330.376 C 355.257 330.169,355.343 330.000,355.576 330.000 C 355.809 330.000,356.000 329.711,356.000 329.357 C 356.000 328.941,355.782 328.798,355.379 328.953 C 355.023 329.089,354.863 329.022,355.003 328.795 C 355.137 328.578,355.507 328.400,355.824 328.400 C 356.156 328.400,356.400 328.016,356.400 327.491 C 356.400 326.862,356.832 326.349,357.800 325.828 C 358.570 325.413,359.201 324.877,359.202 324.637 C 359.204 324.397,359.448 323.735,359.744 323.167 C 360.185 322.322,360.188 322.133,359.759 322.133 C 359.471 322.133,359.312 322.257,359.405 322.408 M154.806 327.124 C 154.803 327.417,154.597 327.522,154.338 327.362 C 154.050 327.184,153.985 327.252,154.166 327.545 C 154.325 327.802,154.578 327.939,154.728 327.849 C 155.069 327.642,156.025 328.642,155.749 328.917 C 155.638 329.029,155.767 329.256,156.035 329.422 C 156.347 329.615,156.421 329.557,156.238 329.262 C 156.078 329.003,156.183 328.797,156.476 328.794 C 156.900 328.789,156.898 328.723,156.466 328.449 C 156.172 328.263,155.947 327.996,155.966 327.855 C 155.985 327.715,155.885 327.615,155.745 327.634 C 155.604 327.653,155.337 327.428,155.151 327.134 C 154.877 326.702,154.811 326.700,154.806 327.124 M159.200 332.988 C 159.945 333.873,159.996 334.026,159.400 333.588 C 158.456 332.894,158.015 332.339,158.006 331.833 C 158.003 331.632,158.045 331.542,158.100 331.633 C 158.155 331.725,158.650 332.335,159.200 332.988 M350.201 332.798 C 350.066 333.017,349.560 333.400,349.078 333.650 L 348.200 334.104 349.000 333.276 C 349.828 332.419,350.634 332.098,350.201 332.798 " stroke="none" fill="#1c64d8" fill-rule="evenodd"></path></g></svg>